<svg id="Layer_1" data-name="Layer 1" xmlns="http://www.w3.org/2000/svg" viewBox="0 0 86 72"><defs><style>.cls-1{fill:#88785b;stroke:#fff;stroke-miterlimit:10;stroke-width:0.57px;}</style></defs><path class="cls-1" d="M53.26,4.7a10.67,10.67,0,0,1,.39,2c.06,1.92,0,3.83,0,5.93h4.57c1.48,0,1.7.23,1.7,1.71q0,7,0,14.09V30c.5,0,.93.07,1.36.07,2.45,0,4.9,0,7.35,0,1.06,0,1.55.39,1.55,1.52q0,17.7,0,35.4c0,1-.37,1.47-1.44,1.47q-24.38,0-48.76,0A4.31,4.31,0,0,1,18.69,68V30.45a9.33,9.33,0,0,1,1.87-.35c2.73,0,5.45,0,8.31,0V14.67c0-1.92.15-2.06,2.11-2.06h4.18c0-2.15,0-4.11,0-6.06A9.49,9.49,0,0,1,35.6,4.7ZM38.49,66.35c0-.75,0-1.36,0-2a29.53,29.53,0,0,1,.15-4.52,5.91,5.91,0,0,1,11.69,1c.05,1.78,0,3.57,0,5.43h7.47V14.81H31V66.35Zm29.54,0V32.27h-8V66.35Zm-39.23,0V32.24h-8v34.1ZM51.49,6.91H37.37v5.61H51.49ZM43.36,57.49a3.26,3.26,0,0,0-2.63,2.77c-.17,2,0,4,0,6h2.67Zm2.15,8.92a13.38,13.38,0,0,0,2,0c.28,0,.71-.43.72-.67,0-1.63.09-3.27,0-4.89a3.41,3.41,0,0,0-2.72-3.24Z"/><path class="cls-1" d="M49.46,44.5h1a1.37,1.37,0,0,1,.61,0c1.78.9.7,2.52.91,3.81.12.81-.47,1.25-1.32,1.22h-.37c-3.62,0-3.4.33-3.38-3.35,0-1.43.3-1.71,1.71-1.73Z"/><path class="cls-1" d="M42,31v1.22a1.21,1.21,0,0,1-1.34,1.36,13.52,13.52,0,0,1-2.55,0,1.67,1.67,0,0,1-1.16-1c-.76-3.31-.1-4.11,3.17-4.1,1.63,0,1.87.25,1.88,1.92Z"/><path class="cls-1" d="M49.48,28.5h1a1.48,1.48,0,0,1,.6,0c1.76.9.7,2.52.91,3.81.13.81-.45,1.26-1.28,1.26-4,0-3.83.44-3.79-3.41,0-1.41.29-1.68,1.73-1.7Z"/><path class="cls-1" d="M49.38,25.57c-.41,0-.82,0-1.23,0-.88,0-1.25-.44-1.26-1.28v-2c0-1.58.24-1.8,1.87-1.82,3.24,0,3.24,0,3.23,2.92C52,25.57,52,25.57,49.38,25.57Z"/><path class="cls-1" d="M42,47c0,.41,0,.82,0,1.23a1.14,1.14,0,0,1-1.25,1.31h-.37c-3.94,0-3.46.35-3.47-3.87a.8.8,0,0,1,.08-.47c1.11-1.43,2.65-.59,4-.68.85-.06,1.06.73,1,1.5C41.93,46.39,42,46.72,42,47Z"/><path class="cls-1" d="M39.42,25.57h-.74c-1.68,0-1.83-.15-1.84-1.81,0-3.41-.22-3.27,3.26-3.24,1.6,0,1.84.25,1.85,1.85V23C42,25.57,42,25.57,39.42,25.57Z"/><path class="cls-1" d="M36.85,39c0-.41,0-.81,0-1.22a1.09,1.09,0,0,1,1.21-1.21h2.7a.72.72,0,0,1,.36,0c1.6,1,.58,2.51.79,3.77.13.76-.4,1.2-1.19,1.22H38.64c-1.56,0-1.79-.23-1.8-1.76V39Z"/><path class="cls-1" d="M49.51,36.54c.41,0,.82,0,1.23,0,.82,0,1.16.42,1.25,1.18.41,3.57-.41,4.39-4,3.81-.42-.07-.84-.7-1.09-1.17-.17-.31,0-.79,0-1.2C46.89,36.54,46.89,36.54,49.51,36.54Z"/><path class="cls-1" d="M64,39a4.55,4.55,0,0,1-1.57,0,1.39,1.39,0,0,1-.83-1,1.32,1.32,0,0,1,.8-1,15.46,15.46,0,0,1,3.4,0c.34,0,.89.68.84,1a1.61,1.61,0,0,1-1,1A5.29,5.29,0,0,1,64,39Z"/><path class="cls-1" d="M64.12,47.11a5.94,5.94,0,0,1-1.69,0,1.37,1.37,0,0,1-.82-1,1.26,1.26,0,0,1,.79-1,16.1,16.1,0,0,1,3.4,0c.33,0,.88.67.83.93a1.62,1.62,0,0,1-.94,1,4.82,4.82,0,0,1-1.57,0Z"/><path class="cls-1" d="M64.11,55.25a5.94,5.94,0,0,1-1.69,0,1.38,1.38,0,0,1-.81-1,1.28,1.28,0,0,1,.81-1,16,16,0,0,1,3.39,0,1.3,1.3,0,0,1,.83,1,1.4,1.4,0,0,1-.84,1A5.93,5.93,0,0,1,64.11,55.25Z"/><path class="cls-1" d="M24.82,36.88a3.83,3.83,0,0,1,1.44,0c.41.16.95.64,1,1a1.37,1.37,0,0,1-.89,1,12.38,12.38,0,0,1-3.16,0c-.38,0-.7-.64-1-1,.37-.36.67-.87,1.11-1.05a4.61,4.61,0,0,1,1.58,0Z"/><path class="cls-1" d="M24.73,47.11a5.94,5.94,0,0,1-1.69,0,1.4,1.4,0,0,1-.84-1,1.28,1.28,0,0,1,.81-1,15.46,15.46,0,0,1,3.4,0c.32,0,.86.66.81.93a1.64,1.64,0,0,1-.92,1,4.82,4.82,0,0,1-1.57,0Z"/><path class="cls-1" d="M24.75,55.27a3.89,3.89,0,0,1-1.45,0,4.71,4.71,0,0,1-1.16-1c.4-.35.76-.93,1.22-1a8.37,8.37,0,0,1,2.78,0c.42.07.76.62,1.14.95-.36.35-.66.83-1.09,1A4.06,4.06,0,0,1,24.75,55.27Z"/></svg>