<svg id="Layer_1" data-name="Layer 1" xmlns="http://www.w3.org/2000/svg" viewBox="0 0 86 72"><defs><style>.cls-1{fill:#88785b;}</style></defs><path class="cls-1" d="M59.45,8,49.7,8,30.81,8c-1.37,0-1.54-.11-2-1.37a5.35,5.35,0,0,0-1.94-2.44A5.44,5.44,0,0,0,20.51,4a5.47,5.47,0,0,0-2.66,5.68,5.69,5.69,0,0,0,5.65,4.94,5.43,5.43,0,0,0,5.22-3.46,1.92,1.92,0,0,1,2-1.37c4.86.05,9.72,0,14.58,0,3.52,0,7,0,10.55,0a48.19,48.19,0,0,1,5.24.12A12.81,12.81,0,0,1,72.56,22.57,13.05,13.05,0,0,1,60.17,35.78c-.53,0-.52-.22-.52-.59,0-3.49-.06-7,0-10.48.06-2.56-.23-2.89-2.75-3.35a12.77,12.77,0,0,1-5.06-1.67,13.32,13.32,0,0,0-6.61-2.39c-3.43-.22-6.82-.26-10,1.34a42.44,42.44,0,0,1-7.4,3c-2,.54-2.16.84-2.18,2.86v.6c0,3.3,0,6.59,0,9.88,0,.56-.12.77-.74.8a14.48,14.48,0,0,0-5.36,1.36,14.7,14.7,0,0,0-8.49,15.36A14.49,14.49,0,0,0,23.53,65.24a42.79,42.79,0,0,0,5.77.18c6.87,0,13.75.09,20.63,0,1.54,0,3.09,0,4.63,0a1.61,1.61,0,0,1,1.62,1.23,5.58,5.58,0,0,0,6.42,3.53,5.75,5.75,0,0,0-2.07-11.32,5.47,5.47,0,0,0-4.36,3.57,1.59,1.59,0,0,1-1.72,1.18c-.71,0-1.43,0-2.15,0H26.43a16.66,16.66,0,0,1-3.67-.33,12.94,12.94,0,0,1-7-20.94,12.19,12.19,0,0,1,8.89-4.65c.7,0,1,.19,1.09.89a19.86,19.86,0,0,0,3.56,8.32c3.09,4.4,7.39,7.15,12.34,9a3,3,0,0,0,2.11-.06A23.37,23.37,0,0,0,57.47,44.26a53.54,53.54,0,0,0,2.33-5.72,1.36,1.36,0,0,1,1.33-1A14.82,14.82,0,0,0,59.45,8ZM23.66,12.76a3.9,3.9,0,0,1-4-3.88A4,4,0,0,1,23.37,5a3.9,3.9,0,1,1,.29,7.8ZM61.48,60.63a3.93,3.93,0,0,1,3.89,3.88,3.9,3.9,0,1,1-3.89-3.88ZM57.42,30.81c-.18,2.26.18,4.75-.22,7.23-.82,5.17-3.61,9.06-7.73,12.12a35,35,0,0,1-5.34,3.23,4,4,0,0,1-3.57.14,25.15,25.15,0,0,1-10.26-8,17.7,17.7,0,0,1-3.32-11c.08-3.26,0-6.53,0-9.8,0-1.3.15-1.49,1.43-1.72a23.16,23.16,0,0,0,8.27-3.39,4.4,4.4,0,0,1,2.46-.73c2.11,0,4.21,0,6.32,0a3.56,3.56,0,0,1,2,.58A23.33,23.33,0,0,0,56.39,23c.77.13,1,.49,1,1.41C57.42,26.48,57.42,28.54,57.42,30.81Z"/><path class="cls-1" d="M56,26a1.17,1.17,0,0,0-.86-1.16c-.31-.11-.64-.19-1-.27a10.8,10.8,0,0,1-3.72-1.31A12.89,12.89,0,0,0,42.37,21a11.33,11.33,0,0,0-4.24.47c-2.61,1.12-5.23,2.21-7.85,3.3a1.49,1.49,0,0,0-1,1.55c0,1.74,0,3.49,0,5.24h-.08c0,.94,0,1.88,0,2.82A16.3,16.3,0,0,0,32.31,45,21.25,21.25,0,0,0,42,52.08a2,2,0,0,0,1.44,0c7.19-2.56,11.41-7.62,12.44-15.15C56.38,33.31,55.94,29.65,56,26ZM53.93,38.24c-.72,4.5-3.32,7.68-7.09,10A28,28,0,0,1,43.45,50a1.94,1.94,0,0,1-1.63,0c-4.28-1.86-7.67-4.65-9.6-9A17.13,17.13,0,0,1,31,34.48c-.07-2.38,0-4.75,0-7.13a.6.6,0,0,1,.4-.61c2.41-1.17,4.8-2.4,7.27-3.45a2.07,2.07,0,0,1,.71-.21c2.38-.16,4.77-.5,7.11.31a6.18,6.18,0,0,1,1.29.55,21.9,21.9,0,0,0,5.51,2.44.81.81,0,0,1,.64.92c0,1.55,0,3.09,0,4.64h.17A30.88,30.88,0,0,1,53.93,38.24Z"/><path class="cls-1" d="M47.93,29.83a3.57,3.57,0,0,0-2.29,1c-1.36,1.16-2.73,2.32-4.07,3.5-.32.29-.51.3-.83,0a18.34,18.34,0,0,0-1.8-1.5,2.42,2.42,0,0,0-2.48-.31,2.48,2.48,0,0,0-.74,4.13,40.53,40.53,0,0,0,3.89,3.39,2.27,2.27,0,0,0,1.5.57,2.9,2.9,0,0,0,2-.9c1.94-1.66,3.86-3.33,5.79-5a4.82,4.82,0,0,0,1.17-1.37A2.4,2.4,0,0,0,47.93,29.83Zm.26,2.52a1.44,1.44,0,0,1-.47.93c-1.93,1.67-3.84,3.37-5.78,5-.76.64-.88.61-1.63,0-.9-.78-1.79-1.56-2.67-2.36a1.54,1.54,0,0,1-.62-.85c-.1-.46,0-.72.46-.61a1.29,1.29,0,0,1,1,.35c.58.5,1.14,1,1.72,1.5.81.67,1.13.68,1.93,0,1.47-1.24,2.92-2.5,4.38-3.76a2.45,2.45,0,0,1,1.3-.63C48.21,31.86,48.25,32,48.19,32.35Z"/></svg>